<?xml version="1.0" encoding="UTF-8"?>
<svg width="1200pt" height="1200pt" version="1.1" viewBox="0 0 1200 1200" xmlns="http://www.w3.org/2000/svg">
 <path d="m1138.2 712.12c-8.3906 0.011718-16.691 1.7617-24.371 5.1367l-65.879-117.26 65.875-117.26h0.003907c7.6797 3.375 15.98 5.125 24.371 5.1367 22.078 0 42.477-11.777 53.516-30.895 11.035-19.121 11.035-42.676 0-61.793-11.039-19.117-31.438-30.895-53.516-30.895-15.266 0.097656-29.938 5.9258-41.105 16.336l-304.88-270.88c9.5898-13.922 12.254-31.477 7.2305-47.617-5.0273-16.141-17.188-29.078-32.988-35.094-15.797-6.0156-33.48-4.4414-47.969 4.2695-14.488 8.7109-24.176 23.59-26.273 40.363h-195.12c-1.9648-16.941-11.672-32.02-26.281-40.824-14.609-8.8047-32.473-10.34-48.371-4.1641-15.902 6.1797-28.039 19.375-32.871 35.734s-1.8086 34.035 8.1836 47.859l-295.39 269.83c-15.18-13.477-36.023-18.617-55.73-13.742-19.707 4.8711-35.754 19.129-42.906 38.129-7.1523 18.996-4.4961 40.301 7.1016 56.961 11.602 16.66 30.656 26.543 50.957 26.426 6.5078-0.11328 12.961-1.2695 19.102-3.4258l24.637 44.27-13.176 17.918h0.003906c-9.2969-5.5039-19.898-8.4141-30.699-8.4336-22.078 0-42.477 11.777-53.512 30.898-11.039 19.117-11.039 42.672 0 61.789 11.035 19.121 31.434 30.898 53.512 30.898 10.91-0.19531 21.562-3.3359 30.828-9.0938l15.941 21.738-22.926 41.898h0.003906c-7.4961-3.2031-15.562-4.8594-23.715-4.875-20.402-0.22656-39.605 9.6289-51.309 26.344-11.707 16.711-14.406 38.125-7.2148 57.219 7.1875 19.098 23.344 33.41 43.164 38.254 19.82 4.8438 40.754-0.41406 55.938-14.043l295.39 270.49c-9.9922 13.824-13.016 31.5-8.1836 47.859s16.969 29.555 32.871 35.734c15.898 6.1758 33.762 4.6406 48.371-4.1641 14.609-8.8047 24.316-23.883 26.281-40.824h195.12c2.0312 16.828 11.699 31.781 26.211 40.543 14.512 8.7578 32.246 10.352 48.082 4.3125 15.84-6.0391 28.016-19.035 33.008-35.23 4.9961-16.199 2.2539-33.793-7.4336-47.703l305.01-270.88c11.168 10.41 25.84 16.238 41.105 16.336 22.078 0 42.477-11.777 53.516-30.895 11.035-19.117 11.035-42.672 0-61.793-11.039-19.117-31.438-30.895-53.516-30.895zm-45.719-245.06-73.516 81.555-28.062-49.934 94.07-41.766c2.1406 3.6367 4.6562 7.0352 7.5078 10.145zm-15.676 313.83-149.28 33.07 56.918-101.19 95.258 42.293v0.003907c-2.0664 6.0234-3.1758 12.336-3.293 18.707-0.007813 2.3789 0.12109 4.7539 0.39453 7.1133zm-166.54 36.891-111.46 24.77h-0.003906c-2.2969-6.5781-5.8281-12.66-10.406-17.918l127.8-142.16 56.125 24.902zm-430.57 263.5-3.9531-3.293 69.961-119.89 39.527 33.332zm-359.68-326.74 34.781-15.809 43.477 59.684-75.23-17.129h0.003906c0.14844-2.4141 0.14844-4.8359 0-7.25 0.046875-6.6172-0.97656-13.203-3.0312-19.496zm47.035-21.477 41.504-18.973 55.074 99.078-45.723-10.41zm-45.586-291.17c0-1.1875 0-2.2383 0.78906-3.4258 0.81641-3.8594 1.2578-7.7852 1.3164-11.727 0.13672-2.2812 0.13672-4.5703 0-6.8516l75.23-17.129-43.477 59.684-34.914-16.863c0.39453-1.4492 0.66016-2.8984 1.0547-3.6875zm96.441-44.664 48.75-11.066-55.336 101.05-44.27-20.293zm326.35-223.19-29.379 15.02-39.527-66.93 3.9531-3.293zm-79.711-45.191 38.602 65.875-16.996 8.6953-21.738-74.703zm45.191 77.602 26.352 44.27-28.723 24.508-17.129-58.762zm32.543 55.863 40.977 70.223-59.688 0.003907-13.176-43.348zm167.46-143.48 3.9531 3.293-69.961 119.89-39.527-33.332zm-72.727 134.79-42.293 72.465-42.293-72.465 42.293-35.707zm55.469 92.227h-0.003907c0.97266 8.5625 3.9531 16.777 8.6992 23.977l-43.082 36.891 17.785-60.871zm-16.734 508.43-17.785-61 43.082 36.891c-4.8125 7.2227-7.8359 15.488-8.8281 24.109zm-164.82 56.523 13.176-43.348h10.016l-18.445 47.562zm0 17.258-19.633 50.328 15.68-53.754zm2.8984-582.34 17.785 61-43.082-36.891h0.003906c4.7617-7.2344 7.7422-15.5 8.6953-24.109zm196.05 33.992 3.9531 3.293-42.953 73.52-16.863-28.984zm-212.65 474.31h0.003906c-0.95312-8.6133-3.9336-16.875-8.6953-24.113l43.082-36.891-17.918 61.266zm-17.391-474.31 55.73 47.824-16.863 28.984-42.82-73.52zm137.95 118.58-22.926 79.051-22.926-79.051 22.926-19.633zm-13.176-28.328 28.062-24.109-11.199 38.602zm-20.023 260.47-28.062 23.98 11.199-38.473zm-13.176-28.328 2.1094-7.1133 5.1367 13.176zm22.926 10.145-14.758-38.078 14.758-50.727 14.758 50.727zm-20.688-62.449-1.3164 4.3477v-1.3164zm-7.9062-13.176-11.859-30.566h29.645zm50.594 13.176 1.8438 3.1602v1.3164zm-9.8828-43.082h29.645l-11.859 30.566zm-38.473-122.53-11.199-38.473 28.062 24.109zm-26.352-41.371 14.758 50.727-11.066 9.4844-19.102-33.461zm18.844 64.957 13.176 43.082-20.949-35.836zm22.398 86.164h-34.387l-22.004-56.652 15.809-13.176zm-48.746-0.52344h-37.023c-0.95312-8.6133-3.9336-16.875-8.6953-24.113l27.406-23.453zm-37.285 13.176h42.426l17.523 45.059-14.758 25.164-53.887-46.113h-0.003906c4.8594-7.2148 7.9297-15.477 8.9609-24.113zm65.875 60.738 2.8984 7.5117-5.1406 17.387-8.3008-7.1133zm-6.3242 39.527-14.363 50.457-15.68-26.352 19.367-33.332zm22.266 45.852-15.547 40.836-10.672-18.312zm15.68-3.8203 23.188 59.422-23.059 39.527-23.188-39.527zm15.68 3.8203 26.352 22.793-10.016 18.043zm-5.5352-22.133 16.863-14.492 11.199 38.473zm5.5352-22.133 5.1367-13.176 2.1094 7.1133zm13.176-33.465 2.8984-7.5117 10.672 18.184-8.4336 7.1133zm9.0898-23.188 17.523-45.059 42.422-0.011719c0.97266 8.5664 3.9531 16.781 8.6953 23.98l-53.887 46.246zm59.945-58.375h-37.152l18.445-47.562 27.406 23.453-0.003906-0.003907c-4.7617 7.2383-7.7422 15.5-8.6953 24.113zm-51.383 0h-34.652l40.977-70.223 15.809 13.176zm-24.902-43.082 13.176-42.953 8.3008 7.1133zm16.602-56.918 14.758-50.727 15.68 26.352-19.5 33.332zm-37.812-32.543-42.293-36.23 42.293-72.465 42.293 72.465zm-48.75-51.383-18.574-63.77h55.863zm-34.914 60.078-6.457 10.934-25.559-65.875zm7.6406 13.176 16.863 28.984-14.621 11.988-10.672-27.535zm-7.7734 50.199-31.094 26.352-3.9531-3.293 26.352-45.324zm-31.094 107.77 55.863 47.824-16.863 28.984-42.953-73.52zm55.863 131.75-55.863 47.824-3.9531-3.293 42.953-73.52zm-38.602 94.988h13.176l-9.8828 33.992-11.461-9.8828c4.5781-7.2812 7.375-15.543 8.168-24.109zm30.305-13.176 18.578-63.77 10.934 18.84-17.391 44.93zm38.074-30.301 17.785 30.434h-29.641zm58.496 0 11.859 30.434h-29.645zm8.4336-14.492 10.934-18.84 18.578 63.77h-12.121zm77.34 11.066-55.863-47.824 16.863-28.984 42.953 73.52zm-62.32-63.242-14.758-50.727 11.066-9.4844 19.504 33.332zm6.457-68.906 55.863-47.824 3.9531 3.293-42.953 73.52zm55.863-128.98-30.699-26.617 8.5625-22.004 26.352 45.324zm-41.633-35.703-14.098-12.121 16.863-28.984 7.9062 13.176zm10.934-54.152 32.016-54.941-25.691 65.875zm-35.574-59.949-37.285-63.898h55.863zm-133.59-77.074h-13.176c-0.95312-8.6133-3.9336-16.875-8.6953-24.109l11.461-9.8828zm-108.17 43.477-124.11 141.37-50.195-22.793 173.78-118.58zm9.75 8.8281c13.035 9.125 29.453 11.973 44.797 7.7734l39.527 102.64-31.621 54.281c-12.184-5.2891-25.875-5.9727-38.523-1.9258s-23.398 12.551-30.254 23.93l-105.4-48.223zm-21.211 198.55c-1.0586 3.2617-1.8086 6.6133-2.2383 10.016h-159.42l52.699-59.949zm-2.2383 23.188c0.42969 3.4023 1.1797 6.7539 2.2383 10.016l-109.22 49.273-52.699-59.949zm7.5117 22.133-0.003907 0.003906c6.8555 11.41 17.629 19.934 30.309 23.98 12.68 4.0508 26.398 3.3477 38.598-1.9766l46.641 79.844-46.641 80.234c-17.285-7.4258-37.172-5.4844-52.699 5.1367l-121.61-139.13zm6.0586 195.26-174.18-118.58 50.199-22.926zm-7.7734 11.332v-0.003906c-1.168 2.2109-2.1797 4.5-3.0312 6.8516l-110.01-25.164-52.699-95.52zm-5.9297 19.633v-0.003906c-0.097656 1.8867-0.097656 3.7773 0 5.6641-0.058594 14.348 5.4961 28.148 15.477 38.453 9.9844 10.309 23.602 16.297 37.941 16.695 14.344 0.39844 28.27-4.832 38.809-14.566l16.207 13.836-44.797 152.43c-10.031-1.8828-20.398-0.73828-29.777 3.293l-131.75-238.08zm133.07 82.207 14.098 12.121-56.523 96.84zm5.0078-13.176 22.004-56.652h34.781l-40.977 70.223zm114.49-56.652 22.004 56.652-15.809 13.176-40.453-69.695zm27.141 69.695 42.426 108.96-56.523-96.84zm10.539-9.0898 3.9531-3.293 15.68 53.754zm-5.0078-13.176-18.445-47.562 11.199 0.003906 13.176 43.348zm5.9297-47.297h13.176c0.95313 8.6133 3.9336 16.875 8.6953 24.109l-11.594 9.8828zm98.945-51.648c-15.605-10.699-35.629-12.59-52.965-5.0039l-45.98-80.371 46.508-79.844v0.003906c12.277 5.3633 26.09 6.0469 38.836 1.9219 12.742-4.1289 23.535-12.781 30.336-24.32l108.3 48.746zm20.816-199.61v0.003906c3.5742-10.465 3.5742-21.816 0-32.281l113.44-50.461 60.609 66.535-59.949 66.535zm-5.2695-44.402v0.003907c-6.8008-11.539-17.59-20.191-30.336-24.32-12.742-4.125-26.559-3.4414-38.832 1.9219l-31.094-54.809 39.527-102.64-0.003906 0.003906c15.562 4.3711 32.27 1.3594 45.324-8.1719l124.9 139.27zm-101.32-239.26h-13.176l9.8828-33.859 11.461 9.8828v-0.003906c-4.5586 7.2461-7.3555 15.461-8.168 23.98zm-26.352 0h-59.684l40.977-70.223 31.355 26.352zm-11.988-81.816 71.145-121.87-42.422 146.51zm-59.156-50.727-26.352-23.188 133.07-67.719zm-10.145 8.6953-39.527 33.332-24.109-41.633 33.598-17.129zm-142.03-75.23c3.0078-0.0625 6.0039-0.37109 8.9609-0.92188l22.531 77.207-133.07 67.719 81.156-148.09c6.4844 2.6523 13.418 4.0391 20.422 4.0859zm-112.78 164.56 147.96-75.363 18.051 62.055-16.207 13.836c-10.535-9.7383-24.465-14.965-38.809-14.57-14.34 0.39844-27.957 6.3906-37.941 16.695-9.9805 10.305-15.535 24.109-15.477 38.453-0.097656 1.8906-0.097656 3.7812 0 5.668l-95.785 21.871zm61 59.684c0.85156 2.3516 1.8633 4.6406 3.0312 6.8516l-160.74 110.14 50.594-92.227zm-173.78 146.51 51.648 23.582-54.547 62.32-27.141-30.961zm-39.527 44.27-10.934-12.383 28.328-19.367zm22.004 44.93h-31.355l12.121-22.004zm0 13.176-21.871 24.902-13.703-24.906zm14.492 3.4258 54.547 62.188-53.754 24.508-1.3164-0.92188-28.984-52.699zm-24.77 69.035-22.266-15.285 8.4336-9.6172zm11.594 23.98-41.633 18.973-19.762-26.352 18.707-21.344zm71.41 125.56 112.78 202.9-155.2-212.52zm280.24 117.66 42.293-72.465 42.293 72.465-42.293 35.836zm91.305 11.594 69.961 119.89-3.9531 3.293-105.4-89.855zm103.16 108.56c-3.0039 0.0625-6 0.37109-8.957 0.92188l-44.402-152.04 16.207-13.836c10.535 9.7383 24.465 14.965 38.809 14.57 14.34-0.39844 27.957-6.3906 37.941-16.695 9.9805-10.305 15.535-24.109 15.477-38.453 0.089844-1.8008 0.089844-3.6055 0-5.4023l100-22.266-133.6 237.15c-6.832-2.6953-14.133-3.9961-21.477-3.8203zm178.66-394.2 56.523-62.316 28.062 31.227-30.828 54.941zm64.957-72.199 26.352-28.855 15.938 28.855-16.207 28.855zm-8.4336-9.8828-56.125-62.32 52.699-23.715 30.828 54.941zm95.914-152.57c0 1.1875 0 2.2383 0.78906 3.4258 0.78906 1.1875 0 2.7656 0.92188 4.0859l-94.863 42.16-56.918-101.19 149.27 33.203h0.007812c-0.13672 2.3281-0.13672 4.6602 0 6.9844-0.21484 3.7812-0.085937 7.5742 0.39453 11.332zm-105.4 54.941-56.387 25.035-127.93-142.16c4.5781-5.2578 8.1094-11.34 10.41-17.918l111.46 24.77zm-171.28-148.09v0.003906c0.089844-1.8008 0.089844-3.6055 0-5.4023 0.0625-14.348-5.4961-28.148-15.477-38.457-9.9805-10.305-23.598-16.297-37.941-16.691-14.344-0.39844-28.27 4.832-38.809 14.566l-15.547-13.703 44.402-152.18v0.003907c10.117 1.9297 20.582 0.78125 30.039-3.293l133.6 237.15zm-106.06-247.3-138.34 70.488-68.512-58.629c4.7617-7.2383 7.7422-15.5 8.6953-24.113h195.12c0.53516 4.1875 1.5508 8.3008 3.0312 12.254zm-375.23 191.3-36.234 18.312 104.21-142.82zm-11.199 20.422-33.859 61.793-45.324 10.41 37.023-50.727zm-98.684 76.68-89.988 20.555v-1.0547l120.95-61.527zm-95.52 71.938 32.281 14.758-16.473 22.395-23.582-26.352c2.9766-3.3047 5.582-6.9297 7.7734-10.801zm44.531 20.289 41.766 19.105-42.688 29.25-19.367-21.348zm-11.988 56.391-17.258 11.859-8.6953-15.68 10.277-14.098zm8.6953 10.012 15.02 16.336-16.074 29.512-18.578-32.938zm-14.359 49.277h-18.445c-0.81641-7.8984-3.1875-15.559-6.9844-22.531l9.6172-6.457zm-18.312 13.176h22.793l-17.129 31.227-13.176-8.6953v-0.003906c3.9297-6.9453 6.4375-14.605 7.3789-22.531zm31.754 10.934 13.176 24.508-13.176 14.359-16.207-11.066zm-7.7773 48.352-15.68 18.445-7.5117-10.277 9.3555-17.129zm0 61.398-32.281 14.758v-0.003906c-2.1758-3.6836-4.7383-7.1289-7.6406-10.273l23.582-26.352zm-26.352 65.875 90.117 20.555 188.41 258.1-287.88-261c3.7695-5.1289 6.7031-10.82 8.6953-16.867zm368.91 297.1 106.32-91.039 106.32 91.172c-5.375 7.2891-8.8633 15.801-10.145 24.77h-195.12c-0.95312-8.6133-3.9336-16.875-8.6953-24.113zm291.04-13.176 138.08-247.7 161-35.703c1.7266 5.7109 4.3047 11.129 7.6406 16.074l-304.09 270.75zm305.66-334.25-94.07-41.766 26.617-49.672 73.387 81.555c-2.8086 3.1172-5.2812 6.5156-7.3789 10.145zm17.258-19.5-77.859-83.793 14.492-26.352zm-77.859-162.85 76.152-84.715-61.66 111.07zm161-134.39c0 12.895-5.1211 25.262-14.238 34.379-9.1172 9.1172-21.484 14.238-34.379 14.238-8.5547 0.054687-16.969-2.1758-24.371-6.457-3.1016-1.6484-5.9805-3.6836-8.5664-6.0586-5.125-4.5195-9.2148-10.094-11.988-16.336-2.7734-6.2227-4.2109-12.953-4.2148-19.766-0.039062-3.5977 0.40234-7.1875 1.3164-10.672 1.7539-8.0664 5.6172-15.523 11.199-21.605 9.1133-10.395 22.273-16.352 36.098-16.34 12.988-0.14062 25.488 4.9219 34.719 14.055 9.2344 9.1328 14.426 21.578 14.426 34.562zm-99.34-35.441c-2.0781 2.9492-3.8867 6.082-5.4023 9.3555l-0.92188 2.2383c0 1.3164-1.1875 2.7656-1.582 4.2148l-160.74-35.832-139.39-247.96 3.9531-3.1602 304.09 270.75zm-689.33-263.5-140.71 192.75-143.48 73.387-1.4492-2.8984v-0.78906zm-384.98 298.95c-0.042969-13.16 5.2617-25.773 14.703-34.941s22.203-14.105 35.355-13.68c13.156 0.42969 25.57 6.1836 34.395 15.949 3.1641 3.4453 5.7852 7.3555 7.7734 11.594 0.82422 1.5234 1.5273 3.1094 2.1094 4.7422 0.63672 1.7656 1.1641 3.5703 1.5781 5.4023 0.85156 3.5391 1.293 7.1641 1.3203 10.805 0.03125 14.062-6.082 27.441-16.734 36.625-3.6367 3.2383-7.7734 5.8633-12.254 7.7734-6.1719 2.7695-12.863 4.207-19.629 4.2148-12.871 0-25.219-5.1016-34.332-14.191-9.1133-9.0898-14.25-21.422-14.285-34.293zm79.844 52.699 4.0859-2.6367 25.43 28.984-8.4336 11.461zm26.352 73.648-10.809 8.0391c-1.6719-1.9648-3.4766-3.8125-5.4023-5.5312l9.4844-13.176zm-106.2 47.566c0-12.895 5.1211-25.258 14.238-34.379 9.1172-9.1172 21.484-14.238 34.379-14.238 10.305-0.007812 20.336 3.3203 28.59 9.4883 4.5273 3.1992 8.4141 7.2227 11.461 11.855 5.6016 8.043 8.6016 17.605 8.6016 27.406 0 9.7969-3 19.363-8.6016 27.402-3.0547 4.5898-6.9414 8.5703-11.461 11.727-8.2305 6.1016-18.215 9.3828-28.461 9.3555-12.914 0.035156-25.316-5.0703-34.461-14.195-9.1445-9.1211-14.285-21.504-14.285-34.422zm89.988 45.586h-0.003906c1.9453-1.8906 3.75-3.9141 5.4023-6.0586l13.836 9.4844-6.9844 13.176zm19.367 48.879-25.297 28.855 19.895-36.363zm-109.36 79.051v0.003906c0-12.895 5.1211-25.262 14.238-34.379 9.1172-9.1172 21.484-14.238 34.379-14.238 8.207-0.015625 16.277 2.0703 23.449 6.0586 3.0586 1.6016 5.8945 3.5938 8.4336 5.9297 10.617 9.1562 16.727 22.477 16.734 36.496-0.21484 12.141-4.9102 23.777-13.176 32.676-8.8203 9.5273-21.094 15.117-34.07 15.523-12.98 0.40234-25.574-4.4141-34.973-13.375-9.3945-8.9609-14.805-21.316-15.016-34.297zm1125 48.617c-13.871 0.050782-27.086-5.9062-36.23-16.336-5.5195-6.0234-9.3789-13.379-11.199-21.344-0.84375-3.3594-1.2422-6.8125-1.1875-10.277 0.003906-6.8086 1.4414-13.543 4.2188-19.762 2.7773-6.2422 6.8672-11.812 11.988-16.336 2.418-2.4219 5.1172-4.543 8.0391-6.3242 7.2188-4.1367 15.395-6.3164 23.715-6.3242 17.367 0 33.418 9.2656 42.102 24.309 8.6836 15.039 8.6836 33.574 0 48.613-8.6836 15.043-24.734 24.309-42.102 24.309z"/>
</svg>
